# xmcd CD database file
#
# Track frame offsets:
#	150
#	21492
#	41317
#	57752
#	75605
#	93710
#	112200
#	130170
#	148212
#	167495
#	182297
#	198867
#	218300
#	237552
#	254457
#	270767
#	287300
#	306035
#
# Disc length: 4323 seconds
#
# Revision: 0
# Processed by: cddbd v1.5PL3 Copyright (c) Steve Scherf et al.
# Submitted via: CDex 1.50beta10
#
DISCID=f110e112
DTITLE=BAIDAI - 映画音楽 [愛と青春]
DYEAR=1997
DGENRE=Misc
TTITLE0=ゴー・ザ・ディスタンス -ヘラクレス-
TTITLE1=イフ・アイ・ネヴァー・ニュー・ユー [ポカホンタス愛のテーマ] -ポカホンタス-
TTITLE2=トゥー・ディファレント・ワールズ [ジャングル・ブック]
TTITLE3=愛を信じて [ライオン・キング]
TTITLE4=美女と野獣 -メイン・テーマ-
TTITLE5=ホール・ニュー・ワールド [アラジン]
TTITLE6=オールウェイズ・ラブ・ユー [ボディガード]
TTITLE7=アンチェインド・メロディー [ゴースト/ニューヨークの幻]
TTITLE8=愛は吐息のように [トップ・ガン]
TTITLE9=スター誕生 -愛のテーマ-
TTITLE10=ミスター・ロンリー [グローイング・アップ]
TTITLE11=エンドレス・ラブ
TTITLE12=愛のファンタジー [ラ・ブーム]
TTITLE13=ミスター・アーサー
TTITLE14=スタンド・バイ・ミー
TTITLE15=デンジャー・ゾーン [トップ・ガン]
TTITLE16=愛と青春の旅だち
TTITLE17=ロッキー -メイン・テーマ-
EXTD=YEAR: 1997
EXTT0=
EXTT1=
EXTT2=
EXTT3=
EXTT4=
EXTT5=
EXTT6=
EXTT7=
EXTT8=
EXTT9=
EXTT10=
EXTT11=
EXTT12=
EXTT13=
EXTT14=
EXTT15=
EXTT16=
EXTT17=
PLAYORDER=
